<?xml version="1.0" encoding="utf-8" ?>
<svg baseProfile="full" height="64.0" version="1.1" width="64.0" xmlns="http://www.w3.org/2000/svg" xmlns:ev="http://www.w3.org/2001/xml-events" xmlns:xlink="http://www.w3.org/1999/xlink">
  <defs />
  <polygon fill="black" points="31,8 29,10 30,11 30,12 31,13 31,16 30,17 27,17 26,18 25,18 23,16 22,16 21,15 20,15 19,14 17,14 17,15 16,16 16,22 17,23 17,31 16,32 14,32 14,33 16,33 17,34 16,35 15,35 15,36 16,37 17,36 18,36 22,40 21,41 20,41 17,44 17,46 16,47 16,48 19,51 20,51 21,52 23,52 24,53 26,53 27,54 36,54 37,53 39,53 40,52 42,52 43,51 44,51 47,48 47,47 46,46 46,44 43,41 42,41 41,40 45,36 46,36 47,37 48,36 48,35 47,35 46,34 47,33 49,33 49,32 47,32 46,31 46,23 47,22 47,16 46,15 46,14 44,14 43,15 42,15 41,16 40,16 38,18 37,17 33,17 32,16 32,13 34,11 34,10 32,8" />
</svg>