<?xml version="1.0" encoding="utf-8" ?>
<svg baseProfile="full" height="256.0" version="1.1" width="256.0" xmlns="http://www.w3.org/2000/svg" xmlns:ev="http://www.w3.org/2001/xml-events" xmlns:xlink="http://www.w3.org/1999/xlink">
  <defs />
  <polygon fill="black" points="124,35 120,39 120,40 119,41 119,45 120,46 120,47 124,51 124,70 123,71 106,71 105,72 100,72 98,70 97,70 94,67 93,67 91,65 90,65 88,63 87,63 86,62 85,62 84,61 83,61 82,60 81,60 80,59 79,59 78,58 76,58 75,57 70,57 69,58 69,59 68,60 68,62 67,63 67,68 66,69 66,87 67,88 67,93 68,94 68,96 69,97 69,99 70,100 70,101 71,102 71,104 70,105 70,111 69,112 69,123 70,124 70,126 69,127 65,127 64,128 60,128 58,130 58,133 60,135 63,135 64,134 70,134 72,136 72,137 70,139 67,139 66,140 65,140 64,141 63,141 62,142 62,143 61,144 61,145 62,146 62,147 63,147 64,148 66,148 68,146 70,146 71,145 75,145 77,147 77,148 80,151 80,152 84,156 85,156 88,159 89,159 90,160 91,160 92,161 90,163 87,163 86,164 85,164 84,165 83,165 82,166 81,166 78,169 77,169 77,170 73,174 73,175 71,177 71,178 70,179 70,180 69,181 69,183 68,184 68,187 67,188 67,196 68,197 68,198 70,200 71,200 72,201 73,201 74,202 75,202 76,203 77,203 78,204 79,204 80,205 81,205 82,206 83,206 84,207 85,207 86,208 87,208 88,209 89,209 90,210 92,210 93,211 94,211 95,212 97,212 98,213 100,213 101,214 103,214 104,215 107,215 108,216 112,216 113,217 122,217 123,218 131,218 132,217 142,217 143,216 147,216 148,215 151,215 152,214 154,214 155,213 157,213 158,212 160,212 161,211 163,211 164,210 165,210 166,209 167,209 168,208 170,208 171,207 172,207 173,206 174,206 175,205 176,205 177,204 178,204 179,203 180,203 182,201 183,201 184,200 185,200 187,198 187,197 188,196 188,187 187,186 187,184 186,183 186,181 185,180 185,179 184,178 184,177 183,176 183,175 179,171 179,170 178,169 177,169 174,166 173,166 172,165 171,165 170,164 169,164 168,163 165,163 163,161 164,160 165,160 166,159 167,159 171,155 172,155 175,152 175,151 178,148 178,147 180,145 184,145 185,146 186,146 187,147 188,147 189,148 192,148 193,147 193,146 194,145 194,144 193,143 193,142 192,141 191,141 190,140 189,140 188,139 186,139 185,138 184,138 183,137 183,136 185,134 190,134 191,135 195,135 197,133 197,130 196,129 195,129 194,128 190,128 189,127 186,127 185,126 186,125 186,111 185,110 185,105 184,104 184,102 185,101 185,100 186,99 186,97 187,96 187,94 188,93 188,88 189,87 189,69 188,68 188,64 187,63 187,60 186,59 186,58 185,57 180,57 179,58 177,58 176,59 175,59 174,60 173,60 172,61 171,61 170,62 169,62 168,63 167,63 166,64 165,64 163,66 162,66 158,70 157,70 155,72 151,72 150,71 132,71 131,70 131,51 132,50 133,50 134,49 134,48 135,47 135,46 136,45 136,41 135,40 135,39 131,35" />
</svg>