<?xml version="1.0" encoding="utf-8" ?>
<svg baseProfile="full" height="128.0" version="1.1" width="128.0" xmlns="http://www.w3.org/2000/svg" xmlns:ev="http://www.w3.org/2001/xml-events" xmlns:xlink="http://www.w3.org/1999/xlink">
  <defs />
  <polygon fill="black" points="62,17 60,19 60,20 59,21 59,22 60,23 60,24 62,26 62,34 61,35 53,35 52,36 50,36 48,34 47,34 45,32 44,32 42,30 41,30 40,29 38,29 37,28 35,28 34,29 34,31 33,32 33,46 34,47 34,49 35,50 35,55 34,56 34,61 35,62 34,63 33,63 32,64 29,64 29,67 35,67 36,68 35,69 34,69 33,70 32,70 30,72 32,74 33,73 34,73 35,72 37,72 39,74 39,75 43,79 44,79 45,80 43,82 41,82 36,87 36,88 35,89 35,90 34,91 34,93 33,94 33,97 34,98 34,99 35,100 36,100 37,101 38,101 39,102 40,102 41,103 42,103 43,104 44,104 45,105 47,105 48,106 49,106 50,107 53,107 54,108 61,108 62,109 65,109 66,108 73,108 74,107 77,107 78,106 80,106 81,105 82,105 83,104 84,104 85,103 86,103 87,102 88,102 89,101 90,101 91,100 92,100 93,99 93,98 94,97 94,94 93,93 93,91 92,90 92,89 91,88 91,87 86,82 84,82 82,80 84,78 85,78 88,75 88,74 90,72 92,72 93,73 94,73 95,74 97,72 95,70 94,70 93,69 92,69 91,68 92,67 98,67 98,65 97,64 95,64 94,63 93,63 92,62 93,61 93,55 92,54 92,50 93,49 93,47 94,46 94,32 93,31 93,29 92,28 90,28 89,29 87,29 86,30 85,30 83,32 82,32 80,34 79,34 77,36 76,36 75,35 66,35 65,34 65,26 67,24 67,23 68,22 68,20 65,17" />
</svg>